<?xml version="1.0" standalone="no"?>
<!DOCTYPE svg PUBLIC "-//W3C//DTD SVG 20010904//EN"
 "http://www.w3.org/TR/2001/REC-SVG-20010904/DTD/svg10.dtd">
<svg version="1.0" xmlns="http://www.w3.org/2000/svg"
 width="500.000000pt" height="500.000000pt" viewBox="0 0 500.000000 500.000000"
 preserveAspectRatio="xMidYMid meet">
<metadata>
Created by potrace 1.14, written by Peter Selinger 2001-2017
</metadata>
<g transform="translate(0.000000,500.000000) scale(0.100000,-0.100000)"
fill="#000000" stroke="none">
<path d="M3699 4713 c0 -5 -2 -17 -4 -28 -2 -11 -6 -40 -9 -65 -3 -25 -8 -56
-10 -70 -3 -14 -8 -41 -10 -60 -12 -80 -43 -193 -69 -245 -77 -155 -191 -218
-477 -264 -69 -11 -142 -21 -162 -23 -20 -1 -34 -6 -32 -10 3 -5 11 -8 17 -6
33 6 253 -32 366 -62 172 -48 263 -135 317 -305 25 -78 61 -271 68 -361 1 -24
6 -48 10 -52 4 -4 7 -2 6 3 -1 6 -1 12 0 15 1 3 3 16 5 30 8 85 16 147 19 160
1 8 7 38 11 65 10 57 12 64 15 68 1 1 3 10 5 19 7 35 28 95 52 145 43 90 125
160 233 198 41 15 192 49 265 60 101 16 161 22 169 17 5 -3 6 0 2 7 -4 7 -15
11 -24 10 -41 -6 -272 35 -377 66 -81 24 -150 62 -195 106 -33 31 -76 97 -85
129 -4 14 -11 30 -15 35 -5 6 -12 28 -16 50 -10 48 -9 46 -17 65 -3 8 -8 31
-11 50 -3 19 -7 46 -10 60 -11 57 -18 118 -20 157 0 24 -4 43 -8 43 -5 0 -8
-3 -9 -7z"/>
<path d="M1365 4334 c-4 -44 -9 -88 -11 -99 -4 -24 -15 -100 -18 -135 -2 -14
-7 -36 -11 -50 -4 -14 -9 -36 -10 -50 -1 -14 -8 -45 -15 -70 -7 -25 -13 -52
-15 -60 -6 -29 -55 -143 -79 -184 -70 -118 -202 -203 -388 -251 -66 -17 -200
-43 -253 -49 -27 -4 -57 -8 -65 -10 -21 -6 -131 -19 -152 -18 -10 0 -18 -3
-18 -7 0 -5 33 -12 73 -16 69 -6 109 -12 152 -20 11 -2 36 -6 55 -9 58 -9 132
-24 180 -36 25 -6 54 -13 65 -16 61 -12 177 -69 240 -117 85 -65 173 -217 200
-346 2 -9 9 -38 15 -66 6 -27 14 -61 16 -75 10 -62 14 -86 18 -106 2 -11 7
-45 10 -75 4 -30 8 -63 10 -74 3 -11 5 -40 5 -64 1 -65 18 -39 25 39 3 36 8
76 10 90 3 14 7 43 10 65 4 33 19 114 40 220 2 11 12 47 21 80 10 33 17 61 17
62 -4 7 82 160 96 174 10 9 27 28 40 43 51 60 208 139 320 161 12 2 26 6 30 9
4 2 27 7 52 11 25 4 47 8 50 10 6 4 108 18 138 19 12 1 22 3 22 6 0 3 19 6 43
8 23 1 51 4 62 6 11 3 35 5 53 5 61 2 32 18 -45 26 -43 4 -87 9 -98 11 -11 2
-38 6 -60 8 -64 7 -247 46 -267 57 -10 5 -18 8 -18 5 0 -10 -116 36 -174 69
-67 38 -118 82 -156 135 -28 38 -89 159 -95 187 -2 10 -11 46 -20 80 -19 72
-20 79 -40 194 -18 100 -22 134 -31 214 -10 92 -20 96 -29 9z"/>
<path d="M2665 3199 c-4 -5 -8 -39 -10 -75 -2 -36 -9 -72 -14 -78 -6 -7 -8
-16 -5 -19 8 -8 -8 -121 -42 -307 -9 -47 -18 -96 -20 -110 -3 -14 -7 -33 -10
-42 -3 -9 -7 -26 -9 -37 -9 -47 -79 -239 -102 -281 -52 -92 -111 -165 -188
-229 -38 -32 -183 -106 -248 -126 -29 -9 -59 -19 -67 -22 -8 -3 -19 -7 -25 -8
-5 -2 -28 -8 -50 -14 -56 -15 -234 -52 -270 -55 -29 -4 -161 -22 -220 -32 -16
-2 -59 -7 -95 -10 -78 -8 -123 -22 -75 -24 53 -3 135 -13 250 -32 39 -7 73
-11 77 -10 4 1 29 -3 55 -8 49 -10 81 -16 143 -26 125 -21 287 -72 395 -124
293 -142 421 -406 500 -1035 4 -27 10 -76 15 -109 5 -32 9 -61 8 -65 0 -3 0
-16 1 -28 2 -33 16 -28 17 5 2 28 23 201 30 237 2 11 7 40 10 65 37 272 102
507 180 648 48 86 118 164 199 221 51 36 185 104 185 94 0 -5 4 -3 8 3 6 9
116 45 180 59 12 3 31 7 42 10 42 10 66 15 97 19 18 3 36 7 40 9 4 3 33 8 63
12 30 4 57 8 60 10 3 2 34 6 70 10 36 4 67 9 70 10 3 2 35 7 70 11 36 3 76 8
90 9 14 2 33 3 43 4 36 2 15 16 -27 18 -24 1 -57 5 -73 7 -24 5 -95 15 -210
31 -16 2 -44 6 -63 10 -19 3 -48 8 -65 11 -16 3 -43 7 -60 10 -16 3 -57 12
-90 21 -33 8 -70 17 -83 19 -108 20 -295 106 -379 173 -142 115 -245 311 -297
566 -3 17 -8 39 -11 50 -5 26 -13 66 -25 140 -5 33 -12 71 -15 85 -14 76 -43
325 -39 332 3 4 3 8 0 8 -3 0 -8 -5 -11 -11z"/>
</g>
</svg>
